<mxfile host="app.diagrams.net" agent="Mozilla/5.0 (X11; Linux x86_64) AppleWebKit/537.36 (KHTML, like Gecko) Chrome/125.0.0.0 Safari/537.36" version="26.0.2">
  <diagram name="第 1 页" id="GaObuayZV9ZZrY6aDF09">
    <mxGraphModel dx="995" dy="-670" grid="1" gridSize="10" guides="1" tooltips="1" connect="1" arrows="1" fold="1" page="1" pageScale="1" pageWidth="827" pageHeight="1169" math="0" shadow="0">
      <root>
        <mxCell id="0" />
        <mxCell id="1" parent="0" />
        <mxCell id="-r-d7jzyUZq8ZXCOeAmc-230" style="edgeStyle=orthogonalEdgeStyle;rounded=0;orthogonalLoop=1;jettySize=auto;html=1;exitX=1;exitY=0.5;exitDx=0;exitDy=0;entryX=0;entryY=0.5;entryDx=0;entryDy=0;" parent="1" source="-r-d7jzyUZq8ZXCOeAmc-185" target="-r-d7jzyUZq8ZXCOeAmc-189" edge="1">
          <mxGeometry relative="1" as="geometry" />
        </mxCell>
        <mxCell id="-r-d7jzyUZq8ZXCOeAmc-185" value="&lt;b&gt;X&lt;/b&gt;" style="rounded=0;whiteSpace=wrap;html=1;fillColor=#b0e3e6;strokeColor=#0e8088;" parent="1" vertex="1">
          <mxGeometry x="120" y="1955" width="110" height="30" as="geometry" />
        </mxCell>
        <mxCell id="-r-d7jzyUZq8ZXCOeAmc-199" style="edgeStyle=orthogonalEdgeStyle;rounded=0;orthogonalLoop=1;jettySize=auto;html=1;exitX=1;exitY=0.5;exitDx=0;exitDy=0;" parent="1" source="-r-d7jzyUZq8ZXCOeAmc-188" target="-r-d7jzyUZq8ZXCOeAmc-190" edge="1">
          <mxGeometry relative="1" as="geometry" />
        </mxCell>
        <mxCell id="-r-d7jzyUZq8ZXCOeAmc-228" style="edgeStyle=orthogonalEdgeStyle;rounded=0;orthogonalLoop=1;jettySize=auto;html=1;exitX=1;exitY=0.5;exitDx=0;exitDy=0;entryX=0;entryY=0.5;entryDx=0;entryDy=0;" parent="1" source="-r-d7jzyUZq8ZXCOeAmc-188" target="-r-d7jzyUZq8ZXCOeAmc-214" edge="1">
          <mxGeometry relative="1" as="geometry" />
        </mxCell>
        <mxCell id="-r-d7jzyUZq8ZXCOeAmc-188" value="&lt;b&gt;C&lt;/b&gt;" style="rounded=0;whiteSpace=wrap;html=1;fillColor=#ffe6cc;strokeColor=#d79b00;" parent="1" vertex="1">
          <mxGeometry x="274" y="2080" width="60" height="30" as="geometry" />
        </mxCell>
        <mxCell id="-r-d7jzyUZq8ZXCOeAmc-198" style="edgeStyle=orthogonalEdgeStyle;rounded=0;orthogonalLoop=1;jettySize=auto;html=1;exitX=1;exitY=0.5;exitDx=0;exitDy=0;entryX=0;entryY=0.5;entryDx=0;entryDy=0;" parent="1" source="-r-d7jzyUZq8ZXCOeAmc-189" target="-r-d7jzyUZq8ZXCOeAmc-191" edge="1">
          <mxGeometry relative="1" as="geometry" />
        </mxCell>
        <mxCell id="-r-d7jzyUZq8ZXCOeAmc-189" value="&lt;b&gt;W_q&lt;/b&gt;" style="rounded=0;whiteSpace=wrap;html=1;fillColor=#dae8fc;strokeColor=#6c8ebf;" parent="1" vertex="1">
          <mxGeometry x="400" y="1940" width="70" height="60" as="geometry" />
        </mxCell>
        <mxCell id="-r-d7jzyUZq8ZXCOeAmc-200" style="edgeStyle=orthogonalEdgeStyle;rounded=0;orthogonalLoop=1;jettySize=auto;html=1;exitX=1;exitY=0.5;exitDx=0;exitDy=0;" parent="1" source="-r-d7jzyUZq8ZXCOeAmc-190" target="-r-d7jzyUZq8ZXCOeAmc-192" edge="1">
          <mxGeometry relative="1" as="geometry" />
        </mxCell>
        <mxCell id="-r-d7jzyUZq8ZXCOeAmc-190" value="&lt;b&gt;WU_k&lt;/b&gt;" style="rounded=0;whiteSpace=wrap;html=1;fillColor=#f8cecc;strokeColor=#b85450;" parent="1" vertex="1">
          <mxGeometry x="400" y="2030" width="70" height="60" as="geometry" />
        </mxCell>
        <mxCell id="-r-d7jzyUZq8ZXCOeAmc-207" style="edgeStyle=orthogonalEdgeStyle;rounded=0;orthogonalLoop=1;jettySize=auto;html=1;exitX=1;exitY=0.5;exitDx=0;exitDy=0;entryX=0.5;entryY=0;entryDx=0;entryDy=0;" parent="1" source="-r-d7jzyUZq8ZXCOeAmc-191" edge="1">
          <mxGeometry relative="1" as="geometry">
            <mxPoint x="625" y="2000" as="targetPoint" />
          </mxGeometry>
        </mxCell>
        <mxCell id="-r-d7jzyUZq8ZXCOeAmc-191" value="&lt;b&gt;q&lt;/b&gt;" style="rounded=0;whiteSpace=wrap;html=1;fillColor=#dae8fc;strokeColor=#6c8ebf;" parent="1" vertex="1">
          <mxGeometry x="530" y="1955" width="60" height="30" as="geometry" />
        </mxCell>
        <mxCell id="-r-d7jzyUZq8ZXCOeAmc-208" style="edgeStyle=orthogonalEdgeStyle;rounded=0;orthogonalLoop=1;jettySize=auto;html=1;exitX=1;exitY=0.5;exitDx=0;exitDy=0;entryX=0.5;entryY=1;entryDx=0;entryDy=0;" parent="1" source="-r-d7jzyUZq8ZXCOeAmc-192" edge="1">
          <mxGeometry relative="1" as="geometry">
            <mxPoint x="625" y="2030" as="targetPoint" />
          </mxGeometry>
        </mxCell>
        <mxCell id="-r-d7jzyUZq8ZXCOeAmc-192" value="&lt;b&gt;k&lt;/b&gt;" style="rounded=0;whiteSpace=wrap;html=1;fillColor=#f8cecc;strokeColor=#b85450;" parent="1" vertex="1">
          <mxGeometry x="530" y="2045" width="60" height="30" as="geometry" />
        </mxCell>
        <mxCell id="-r-d7jzyUZq8ZXCOeAmc-201" value="&lt;b&gt;&lt;i&gt;&lt;font style=&quot;font-size: 15px;&quot;&gt;Down projection&lt;/font&gt;&lt;/i&gt;&lt;/b&gt;" style="text;html=1;align=center;verticalAlign=middle;whiteSpace=wrap;rounded=0;" parent="1" vertex="1">
          <mxGeometry x="250" y="1880" width="150" height="30" as="geometry" />
        </mxCell>
        <mxCell id="-r-d7jzyUZq8ZXCOeAmc-202" value="&lt;b&gt;&lt;i&gt;&lt;font style=&quot;font-size: 15px;&quot;&gt;attention&lt;/font&gt;&lt;/i&gt;&lt;/b&gt;" style="text;html=1;align=center;verticalAlign=middle;whiteSpace=wrap;rounded=0;" parent="1" vertex="1">
          <mxGeometry x="510" y="1880" width="150" height="30" as="geometry" />
        </mxCell>
        <mxCell id="-r-d7jzyUZq8ZXCOeAmc-211" style="edgeStyle=orthogonalEdgeStyle;rounded=0;orthogonalLoop=1;jettySize=auto;html=1;exitX=1;exitY=0.5;exitDx=0;exitDy=0;" parent="1" edge="1">
          <mxGeometry relative="1" as="geometry">
            <mxPoint x="700" y="2015.5882352941176" as="targetPoint" />
            <mxPoint x="640.0000000000264" y="2015" as="sourcePoint" />
          </mxGeometry>
        </mxCell>
        <mxCell id="-r-d7jzyUZq8ZXCOeAmc-209" style="edgeStyle=orthogonalEdgeStyle;rounded=0;orthogonalLoop=1;jettySize=auto;html=1;exitX=0.5;exitY=1;exitDx=0;exitDy=0;" parent="1" source="-r-d7jzyUZq8ZXCOeAmc-202" target="-r-d7jzyUZq8ZXCOeAmc-202" edge="1">
          <mxGeometry relative="1" as="geometry" />
        </mxCell>
        <mxCell id="-r-d7jzyUZq8ZXCOeAmc-212" value="" style="shape=sumEllipse;perimeter=ellipsePerimeter;whiteSpace=wrap;html=1;backgroundOutline=1;" parent="1" vertex="1">
          <mxGeometry x="610" y="2000" width="30" height="30" as="geometry" />
        </mxCell>
        <mxCell id="-r-d7jzyUZq8ZXCOeAmc-223" style="edgeStyle=orthogonalEdgeStyle;rounded=0;orthogonalLoop=1;jettySize=auto;html=1;exitX=1;exitY=0.5;exitDx=0;exitDy=0;" parent="1" source="-r-d7jzyUZq8ZXCOeAmc-213" edge="1">
          <mxGeometry relative="1" as="geometry">
            <mxPoint x="770" y="2015.5882352941176" as="targetPoint" />
          </mxGeometry>
        </mxCell>
        <mxCell id="-r-d7jzyUZq8ZXCOeAmc-213" value="" style="shape=sumEllipse;perimeter=ellipsePerimeter;whiteSpace=wrap;html=1;backgroundOutline=1;" parent="1" vertex="1">
          <mxGeometry x="700" y="2000" width="30" height="30" as="geometry" />
        </mxCell>
        <mxCell id="-r-d7jzyUZq8ZXCOeAmc-217" style="edgeStyle=orthogonalEdgeStyle;rounded=0;orthogonalLoop=1;jettySize=auto;html=1;exitX=1;exitY=0.5;exitDx=0;exitDy=0;entryX=0.5;entryY=1;entryDx=0;entryDy=0;" parent="1" source="-r-d7jzyUZq8ZXCOeAmc-218" target="-r-d7jzyUZq8ZXCOeAmc-213" edge="1">
          <mxGeometry relative="1" as="geometry" />
        </mxCell>
        <mxCell id="-r-d7jzyUZq8ZXCOeAmc-220" style="edgeStyle=orthogonalEdgeStyle;rounded=0;orthogonalLoop=1;jettySize=auto;html=1;exitX=1;exitY=0.5;exitDx=0;exitDy=0;entryX=0;entryY=0.5;entryDx=0;entryDy=0;" parent="1" source="-r-d7jzyUZq8ZXCOeAmc-214" target="-r-d7jzyUZq8ZXCOeAmc-218" edge="1">
          <mxGeometry relative="1" as="geometry" />
        </mxCell>
        <mxCell id="-r-d7jzyUZq8ZXCOeAmc-214" value="&lt;b&gt;W_v&lt;/b&gt;" style="rounded=0;whiteSpace=wrap;html=1;fillColor=#d5e8d4;strokeColor=#82b366;" parent="1" vertex="1">
          <mxGeometry x="400" y="2110" width="70" height="60" as="geometry" />
        </mxCell>
        <mxCell id="-r-d7jzyUZq8ZXCOeAmc-218" value="&lt;b&gt;V&lt;/b&gt;" style="rounded=0;whiteSpace=wrap;html=1;fillColor=#d5e8d4;strokeColor=#82b366;" parent="1" vertex="1">
          <mxGeometry x="530" y="2125" width="60" height="30" as="geometry" />
        </mxCell>
        <mxCell id="-r-d7jzyUZq8ZXCOeAmc-226" value="&lt;b&gt;o&lt;/b&gt;" style="rounded=0;whiteSpace=wrap;html=1;fillColor=#d5e8d4;strokeColor=#82b366;" parent="1" vertex="1">
          <mxGeometry x="680" y="1920" width="60" height="30" as="geometry" />
        </mxCell>
        <mxCell id="DJ5MSKaRVRDGybE-odoW-30" value="" style="group" vertex="1" connectable="0" parent="1">
          <mxGeometry x="230" y="1290" width="700" height="390" as="geometry" />
        </mxCell>
        <mxCell id="DJ5MSKaRVRDGybE-odoW-31" value="" style="rounded=1;whiteSpace=wrap;html=1;" vertex="1" parent="DJ5MSKaRVRDGybE-odoW-30">
          <mxGeometry x="12.962962962962962" width="687.0370370370371" height="390" as="geometry" />
        </mxCell>
        <mxCell id="DJ5MSKaRVRDGybE-odoW-32" style="edgeStyle=orthogonalEdgeStyle;rounded=0;orthogonalLoop=1;jettySize=auto;html=1;exitX=0.5;exitY=0;exitDx=0;exitDy=0;entryX=0.25;entryY=0;entryDx=0;entryDy=0;dashed=1;strokeColor=#666666;" edge="1" parent="DJ5MSKaRVRDGybE-odoW-30" source="DJ5MSKaRVRDGybE-odoW-33" target="DJ5MSKaRVRDGybE-odoW-41">
          <mxGeometry relative="1" as="geometry" />
        </mxCell>
        <mxCell id="DJ5MSKaRVRDGybE-odoW-33" value="W_q" style="rounded=0;whiteSpace=wrap;html=1;fillColor=#dae8fc;strokeColor=#6c8ebf;" vertex="1" parent="DJ5MSKaRVRDGybE-odoW-30">
          <mxGeometry x="90.74074074074073" y="216.66666666666666" width="51.85185185185185" height="32.5" as="geometry" />
        </mxCell>
        <mxCell id="DJ5MSKaRVRDGybE-odoW-34" style="edgeStyle=orthogonalEdgeStyle;rounded=0;orthogonalLoop=1;jettySize=auto;html=1;exitX=0.5;exitY=0;exitDx=0;exitDy=0;entryX=0.25;entryY=0;entryDx=0;entryDy=0;dashed=1;strokeColor=#808080;" edge="1" parent="DJ5MSKaRVRDGybE-odoW-30" source="DJ5MSKaRVRDGybE-odoW-35" target="DJ5MSKaRVRDGybE-odoW-43">
          <mxGeometry relative="1" as="geometry" />
        </mxCell>
        <mxCell id="DJ5MSKaRVRDGybE-odoW-35" value="W_k" style="rounded=0;whiteSpace=wrap;html=1;fillColor=#f8cecc;strokeColor=#b85450;" vertex="1" parent="DJ5MSKaRVRDGybE-odoW-30">
          <mxGeometry x="155.55555555555554" y="231.83333333333331" width="51.85185185185185" height="32.5" as="geometry" />
        </mxCell>
        <mxCell id="DJ5MSKaRVRDGybE-odoW-36" style="edgeStyle=orthogonalEdgeStyle;rounded=0;orthogonalLoop=1;jettySize=auto;html=1;exitX=0.25;exitY=0;exitDx=0;exitDy=0;entryX=0.25;entryY=0;entryDx=0;entryDy=0;dashed=1;strokeColor=#666666;" edge="1" parent="DJ5MSKaRVRDGybE-odoW-30" source="DJ5MSKaRVRDGybE-odoW-37" target="DJ5MSKaRVRDGybE-odoW-45">
          <mxGeometry relative="1" as="geometry" />
        </mxCell>
        <mxCell id="DJ5MSKaRVRDGybE-odoW-37" value="W_v" style="rounded=0;whiteSpace=wrap;html=1;fillColor=#d5e8d4;strokeColor=#82b366;" vertex="1" parent="DJ5MSKaRVRDGybE-odoW-30">
          <mxGeometry x="220.37037037037038" y="248.08333333333331" width="51.85185185185185" height="32.5" as="geometry" />
        </mxCell>
        <mxCell id="DJ5MSKaRVRDGybE-odoW-38" style="edgeStyle=orthogonalEdgeStyle;rounded=0;orthogonalLoop=1;jettySize=auto;html=1;exitX=0.75;exitY=0;exitDx=0;exitDy=0;" edge="1" parent="DJ5MSKaRVRDGybE-odoW-30" source="DJ5MSKaRVRDGybE-odoW-39">
          <mxGeometry relative="1" as="geometry">
            <mxPoint x="265.74074074074076" y="314.16666666666663" as="targetPoint" />
          </mxGeometry>
        </mxCell>
        <mxCell id="DJ5MSKaRVRDGybE-odoW-39" value="(batch_size,seq_len,dim_embeding)" style="text;html=1;align=center;verticalAlign=middle;whiteSpace=wrap;rounded=0;" vertex="1" parent="DJ5MSKaRVRDGybE-odoW-30">
          <mxGeometry x="12.962962962962962" y="346.66666666666663" width="337.037037037037" height="32.5" as="geometry" />
        </mxCell>
        <mxCell id="DJ5MSKaRVRDGybE-odoW-40" style="edgeStyle=orthogonalEdgeStyle;rounded=0;orthogonalLoop=1;jettySize=auto;html=1;exitX=0.5;exitY=0;exitDx=0;exitDy=0;entryX=0;entryY=0.5;entryDx=0;entryDy=0;" edge="1" parent="DJ5MSKaRVRDGybE-odoW-30" source="DJ5MSKaRVRDGybE-odoW-41" target="DJ5MSKaRVRDGybE-odoW-47">
          <mxGeometry relative="1" as="geometry" />
        </mxCell>
        <mxCell id="DJ5MSKaRVRDGybE-odoW-41" value="q" style="rounded=0;whiteSpace=wrap;html=1;fillColor=#dae8fc;strokeColor=#6c8ebf;" vertex="1" parent="DJ5MSKaRVRDGybE-odoW-30">
          <mxGeometry x="381.1111111111111" y="238.33333333333331" width="51.85185185185185" height="32.5" as="geometry" />
        </mxCell>
        <mxCell id="DJ5MSKaRVRDGybE-odoW-42" style="edgeStyle=orthogonalEdgeStyle;rounded=0;orthogonalLoop=1;jettySize=auto;html=1;exitX=0.5;exitY=0;exitDx=0;exitDy=0;entryX=1;entryY=0.5;entryDx=0;entryDy=0;" edge="1" parent="DJ5MSKaRVRDGybE-odoW-30" source="DJ5MSKaRVRDGybE-odoW-43" target="DJ5MSKaRVRDGybE-odoW-47">
          <mxGeometry relative="1" as="geometry" />
        </mxCell>
        <mxCell id="DJ5MSKaRVRDGybE-odoW-43" value="k" style="rounded=0;whiteSpace=wrap;html=1;fillColor=#f8cecc;strokeColor=#b85450;" vertex="1" parent="DJ5MSKaRVRDGybE-odoW-30">
          <mxGeometry x="458.88888888888886" y="238.33333333333331" width="51.85185185185185" height="32.5" as="geometry" />
        </mxCell>
        <mxCell id="DJ5MSKaRVRDGybE-odoW-44" style="edgeStyle=orthogonalEdgeStyle;rounded=0;orthogonalLoop=1;jettySize=auto;html=1;exitX=0.5;exitY=0;exitDx=0;exitDy=0;entryX=1;entryY=0.5;entryDx=0;entryDy=0;" edge="1" parent="DJ5MSKaRVRDGybE-odoW-30" source="DJ5MSKaRVRDGybE-odoW-45" target="DJ5MSKaRVRDGybE-odoW-51">
          <mxGeometry relative="1" as="geometry" />
        </mxCell>
        <mxCell id="DJ5MSKaRVRDGybE-odoW-45" value="v" style="rounded=0;whiteSpace=wrap;html=1;fillColor=#d5e8d4;strokeColor=#82b366;" vertex="1" parent="DJ5MSKaRVRDGybE-odoW-30">
          <mxGeometry x="596.2962962962963" y="238.33333333333331" width="51.85185185185185" height="32.5" as="geometry" />
        </mxCell>
        <mxCell id="DJ5MSKaRVRDGybE-odoW-46" style="edgeStyle=orthogonalEdgeStyle;rounded=0;orthogonalLoop=1;jettySize=auto;html=1;exitX=0.5;exitY=0;exitDx=0;exitDy=0;entryX=0.5;entryY=1;entryDx=0;entryDy=0;" edge="1" parent="DJ5MSKaRVRDGybE-odoW-30" source="DJ5MSKaRVRDGybE-odoW-47" target="DJ5MSKaRVRDGybE-odoW-49">
          <mxGeometry relative="1" as="geometry" />
        </mxCell>
        <mxCell id="DJ5MSKaRVRDGybE-odoW-47" value="" style="shape=sumEllipse;perimeter=ellipsePerimeter;whiteSpace=wrap;html=1;backgroundOutline=1;" vertex="1" parent="DJ5MSKaRVRDGybE-odoW-30">
          <mxGeometry x="432.96296296296293" y="173.33333333333331" width="25.925925925925924" height="21.666666666666664" as="geometry" />
        </mxCell>
        <mxCell id="DJ5MSKaRVRDGybE-odoW-48" style="edgeStyle=orthogonalEdgeStyle;rounded=0;orthogonalLoop=1;jettySize=auto;html=1;exitX=0.5;exitY=0;exitDx=0;exitDy=0;entryX=0;entryY=0.5;entryDx=0;entryDy=0;" edge="1" parent="DJ5MSKaRVRDGybE-odoW-30" source="DJ5MSKaRVRDGybE-odoW-49" target="DJ5MSKaRVRDGybE-odoW-51">
          <mxGeometry relative="1" as="geometry" />
        </mxCell>
        <mxCell id="DJ5MSKaRVRDGybE-odoW-49" value="softmax" style="rounded=1;whiteSpace=wrap;html=1;" vertex="1" parent="DJ5MSKaRVRDGybE-odoW-30">
          <mxGeometry x="440.74074074074076" y="108.33333333333333" width="116.66666666666667" height="21.666666666666664" as="geometry" />
        </mxCell>
        <mxCell id="DJ5MSKaRVRDGybE-odoW-50" style="edgeStyle=orthogonalEdgeStyle;rounded=0;orthogonalLoop=1;jettySize=auto;html=1;exitX=0.5;exitY=0;exitDx=0;exitDy=0;" edge="1" parent="DJ5MSKaRVRDGybE-odoW-30" source="DJ5MSKaRVRDGybE-odoW-51">
          <mxGeometry relative="1" as="geometry">
            <mxPoint x="557.4074074074074" y="21.666666666666664" as="targetPoint" />
          </mxGeometry>
        </mxCell>
        <mxCell id="DJ5MSKaRVRDGybE-odoW-51" value="" style="shape=sumEllipse;perimeter=ellipsePerimeter;whiteSpace=wrap;html=1;backgroundOutline=1;" vertex="1" parent="DJ5MSKaRVRDGybE-odoW-30">
          <mxGeometry x="544.4444444444445" y="43.33333333333333" width="25.925925925925924" height="21.666666666666664" as="geometry" />
        </mxCell>
        <mxCell id="DJ5MSKaRVRDGybE-odoW-52" value="/ d" style="text;html=1;align=center;verticalAlign=middle;whiteSpace=wrap;rounded=0;" vertex="1" parent="DJ5MSKaRVRDGybE-odoW-30">
          <mxGeometry x="440.74074074074076" y="151.66666666666666" width="77.77777777777777" height="32.5" as="geometry" />
        </mxCell>
        <mxCell id="DJ5MSKaRVRDGybE-odoW-53" value="(dim_e,dim_q)" style="text;html=1;align=center;verticalAlign=middle;whiteSpace=wrap;rounded=0;" vertex="1" parent="DJ5MSKaRVRDGybE-odoW-30">
          <mxGeometry y="244.83333333333331" width="181.48148148148147" height="32.5" as="geometry" />
        </mxCell>
        <mxCell id="DJ5MSKaRVRDGybE-odoW-54" value="(dim_e,dim_k)" style="text;html=1;align=center;verticalAlign=middle;whiteSpace=wrap;rounded=0;" vertex="1" parent="DJ5MSKaRVRDGybE-odoW-30">
          <mxGeometry x="64.81481481481481" y="264.3333333333333" width="181.48148148148147" height="32.5" as="geometry" />
        </mxCell>
        <mxCell id="DJ5MSKaRVRDGybE-odoW-55" value="(dim_e,dim_v)" style="text;html=1;align=center;verticalAlign=middle;whiteSpace=wrap;rounded=0;" vertex="1" parent="DJ5MSKaRVRDGybE-odoW-30">
          <mxGeometry x="155.55555555555554" y="280.5833333333333" width="181.48148148148147" height="32.5" as="geometry" />
        </mxCell>
        <mxCell id="DJ5MSKaRVRDGybE-odoW-56" style="edgeStyle=orthogonalEdgeStyle;rounded=0;orthogonalLoop=1;jettySize=auto;html=1;exitX=0.25;exitY=0;exitDx=0;exitDy=0;entryX=0.174;entryY=0.1;entryDx=0;entryDy=0;entryPerimeter=0;" edge="1" parent="DJ5MSKaRVRDGybE-odoW-30" source="DJ5MSKaRVRDGybE-odoW-39" target="DJ5MSKaRVRDGybE-odoW-54">
          <mxGeometry relative="1" as="geometry" />
        </mxCell>
        <mxCell id="DJ5MSKaRVRDGybE-odoW-57" style="edgeStyle=orthogonalEdgeStyle;rounded=0;orthogonalLoop=1;jettySize=auto;html=1;exitX=0.5;exitY=0;exitDx=0;exitDy=0;entryX=0.14;entryY=0.089;entryDx=0;entryDy=0;entryPerimeter=0;" edge="1" parent="DJ5MSKaRVRDGybE-odoW-30" source="DJ5MSKaRVRDGybE-odoW-39" target="DJ5MSKaRVRDGybE-odoW-55">
          <mxGeometry relative="1" as="geometry" />
        </mxCell>
        <mxCell id="DJ5MSKaRVRDGybE-odoW-58" value="&lt;b&gt;&lt;font style=&quot;font-size: 17px;&quot;&gt;Attention&lt;/font&gt;&lt;/b&gt;" style="text;html=1;align=center;verticalAlign=middle;whiteSpace=wrap;rounded=0;" vertex="1" parent="DJ5MSKaRVRDGybE-odoW-30">
          <mxGeometry x="303.3333333333333" y="10.833333333333332" width="77.77777777777777" height="32.5" as="geometry" />
        </mxCell>
        <mxCell id="DJ5MSKaRVRDGybE-odoW-99" style="edgeStyle=orthogonalEdgeStyle;rounded=0;orthogonalLoop=1;jettySize=auto;html=1;exitX=0;exitY=0.5;exitDx=0;exitDy=0;entryX=0.5;entryY=1;entryDx=0;entryDy=0;" edge="1" parent="1" source="DJ5MSKaRVRDGybE-odoW-60" target="DJ5MSKaRVRDGybE-odoW-98">
          <mxGeometry relative="1" as="geometry" />
        </mxCell>
        <mxCell id="DJ5MSKaRVRDGybE-odoW-60" value="&lt;b&gt;X&lt;/b&gt;" style="rounded=0;whiteSpace=wrap;html=1;fillColor=#b0e3e6;strokeColor=#0e8088;" vertex="1" parent="1">
          <mxGeometry x="1061" y="2290" width="159" height="30" as="geometry" />
        </mxCell>
        <mxCell id="DJ5MSKaRVRDGybE-odoW-61" value="&lt;b&gt;W_DKV&lt;/b&gt;" style="shape=trapezoid;perimeter=trapezoidPerimeter;whiteSpace=wrap;html=1;fixedSize=1;fillColor=#ffe6cc;strokeColor=#d79b00;" vertex="1" parent="1">
          <mxGeometry x="1252.5" y="2240" width="79" height="35" as="geometry" />
        </mxCell>
        <mxCell id="DJ5MSKaRVRDGybE-odoW-76" style="edgeStyle=orthogonalEdgeStyle;rounded=0;orthogonalLoop=1;jettySize=auto;html=1;exitX=1;exitY=0.5;exitDx=0;exitDy=0;entryX=0.5;entryY=1;entryDx=0;entryDy=0;" edge="1" parent="1" source="DJ5MSKaRVRDGybE-odoW-62" target="DJ5MSKaRVRDGybE-odoW-68">
          <mxGeometry relative="1" as="geometry">
            <Array as="points">
              <mxPoint x="1290" y="2198" />
            </Array>
          </mxGeometry>
        </mxCell>
        <mxCell id="DJ5MSKaRVRDGybE-odoW-113" style="edgeStyle=orthogonalEdgeStyle;rounded=0;orthogonalLoop=1;jettySize=auto;html=1;exitX=0.5;exitY=0;exitDx=0;exitDy=0;entryX=0.5;entryY=1;entryDx=0;entryDy=0;" edge="1" parent="1" source="DJ5MSKaRVRDGybE-odoW-62" target="DJ5MSKaRVRDGybE-odoW-111">
          <mxGeometry relative="1" as="geometry">
            <Array as="points">
              <mxPoint x="1196" y="2190" />
              <mxPoint x="1196" y="2115" />
            </Array>
          </mxGeometry>
        </mxCell>
        <mxCell id="DJ5MSKaRVRDGybE-odoW-62" value="&lt;b&gt;C_KV&lt;/b&gt;" style="rounded=0;whiteSpace=wrap;html=1;fillColor=#ffe6cc;strokeColor=#d79b00;" vertex="1" parent="1">
          <mxGeometry x="1181" y="2190" width="60" height="15" as="geometry" />
        </mxCell>
        <mxCell id="DJ5MSKaRVRDGybE-odoW-63" value="&lt;b&gt;W_Dq&lt;/b&gt;" style="shape=trapezoid;perimeter=trapezoidPerimeter;whiteSpace=wrap;html=1;fixedSize=1;fillColor=#e1d5e7;strokeColor=#9673a6;" vertex="1" parent="1">
          <mxGeometry x="910" y="2240" width="80" height="35" as="geometry" />
        </mxCell>
        <mxCell id="DJ5MSKaRVRDGybE-odoW-87" style="edgeStyle=orthogonalEdgeStyle;rounded=0;orthogonalLoop=1;jettySize=auto;html=1;exitX=0.5;exitY=0;exitDx=0;exitDy=0;entryX=1;entryY=0.5;entryDx=0;entryDy=0;" edge="1" parent="1" source="DJ5MSKaRVRDGybE-odoW-65" target="DJ5MSKaRVRDGybE-odoW-85">
          <mxGeometry relative="1" as="geometry" />
        </mxCell>
        <mxCell id="DJ5MSKaRVRDGybE-odoW-65" value="&lt;b&gt;k&lt;/b&gt;" style="rounded=0;whiteSpace=wrap;html=1;fillColor=#f8cecc;strokeColor=#b85450;" vertex="1" parent="1">
          <mxGeometry x="1130" y="2010" width="60" height="30" as="geometry" />
        </mxCell>
        <mxCell id="DJ5MSKaRVRDGybE-odoW-91" style="edgeStyle=orthogonalEdgeStyle;rounded=0;orthogonalLoop=1;jettySize=auto;html=1;exitX=0.5;exitY=0;exitDx=0;exitDy=0;entryX=1;entryY=0.5;entryDx=0;entryDy=0;" edge="1" parent="1" source="DJ5MSKaRVRDGybE-odoW-68" target="DJ5MSKaRVRDGybE-odoW-89">
          <mxGeometry relative="1" as="geometry" />
        </mxCell>
        <mxCell id="DJ5MSKaRVRDGybE-odoW-68" value="&lt;b&gt;V&lt;/b&gt;" style="rounded=0;whiteSpace=wrap;html=1;fillColor=#d5e8d4;strokeColor=#82b366;" vertex="1" parent="1">
          <mxGeometry x="1260" y="2010" width="60" height="30" as="geometry" />
        </mxCell>
        <mxCell id="DJ5MSKaRVRDGybE-odoW-86" style="edgeStyle=orthogonalEdgeStyle;rounded=0;orthogonalLoop=1;jettySize=auto;html=1;exitX=0.5;exitY=0;exitDx=0;exitDy=0;entryX=0;entryY=0.5;entryDx=0;entryDy=0;" edge="1" parent="1" source="DJ5MSKaRVRDGybE-odoW-69" target="DJ5MSKaRVRDGybE-odoW-85">
          <mxGeometry relative="1" as="geometry" />
        </mxCell>
        <mxCell id="DJ5MSKaRVRDGybE-odoW-69" value="&lt;b&gt;q&lt;/b&gt;" style="rounded=0;whiteSpace=wrap;html=1;fillColor=#dae8fc;strokeColor=#6c8ebf;" vertex="1" parent="1">
          <mxGeometry x="980" y="2010" width="60" height="30" as="geometry" />
        </mxCell>
        <mxCell id="DJ5MSKaRVRDGybE-odoW-78" value="" style="shape=sumEllipse;perimeter=ellipsePerimeter;whiteSpace=wrap;html=1;backgroundOutline=1;" vertex="1" parent="1">
          <mxGeometry x="1300" y="2112.5" width="10" height="10" as="geometry" />
        </mxCell>
        <mxCell id="DJ5MSKaRVRDGybE-odoW-80" value="" style="shape=sumEllipse;perimeter=ellipsePerimeter;whiteSpace=wrap;html=1;backgroundOutline=1;" vertex="1" parent="1">
          <mxGeometry x="1141.5" y="2112.5" width="9" height="10" as="geometry" />
        </mxCell>
        <mxCell id="DJ5MSKaRVRDGybE-odoW-81" style="edgeStyle=orthogonalEdgeStyle;rounded=0;orthogonalLoop=1;jettySize=auto;html=1;exitX=0;exitY=0.5;exitDx=0;exitDy=0;entryX=0.45;entryY=1;entryDx=0;entryDy=0;entryPerimeter=0;" edge="1" parent="1" source="DJ5MSKaRVRDGybE-odoW-62" target="DJ5MSKaRVRDGybE-odoW-65">
          <mxGeometry relative="1" as="geometry" />
        </mxCell>
        <mxCell id="DJ5MSKaRVRDGybE-odoW-82" value="" style="endArrow=classic;html=1;rounded=0;entryX=0.5;entryY=1;entryDx=0;entryDy=0;" edge="1" parent="1">
          <mxGeometry width="50" height="50" relative="1" as="geometry">
            <mxPoint x="1210.71" y="2287.5" as="sourcePoint" />
            <mxPoint x="1210.71" y="2205" as="targetPoint" />
          </mxGeometry>
        </mxCell>
        <mxCell id="DJ5MSKaRVRDGybE-odoW-83" value="" style="shape=sumEllipse;perimeter=ellipsePerimeter;whiteSpace=wrap;html=1;backgroundOutline=1;" vertex="1" parent="1">
          <mxGeometry x="1241" y="2252.5" width="9" height="10" as="geometry" />
        </mxCell>
        <mxCell id="DJ5MSKaRVRDGybE-odoW-84" value="" style="shape=sumEllipse;perimeter=ellipsePerimeter;whiteSpace=wrap;html=1;backgroundOutline=1;" vertex="1" parent="1">
          <mxGeometry x="990" y="2240" width="9" height="10" as="geometry" />
        </mxCell>
        <mxCell id="DJ5MSKaRVRDGybE-odoW-90" style="edgeStyle=orthogonalEdgeStyle;rounded=0;orthogonalLoop=1;jettySize=auto;html=1;exitX=0.5;exitY=0;exitDx=0;exitDy=0;entryX=0;entryY=0.5;entryDx=0;entryDy=0;" edge="1" parent="1" source="DJ5MSKaRVRDGybE-odoW-85" target="DJ5MSKaRVRDGybE-odoW-89">
          <mxGeometry relative="1" as="geometry" />
        </mxCell>
        <mxCell id="DJ5MSKaRVRDGybE-odoW-85" value="" style="shape=sumEllipse;perimeter=ellipsePerimeter;whiteSpace=wrap;html=1;backgroundOutline=1;" vertex="1" parent="1">
          <mxGeometry x="1070" y="1950" width="30" height="30" as="geometry" />
        </mxCell>
        <mxCell id="DJ5MSKaRVRDGybE-odoW-89" value="" style="shape=sumEllipse;perimeter=ellipsePerimeter;whiteSpace=wrap;html=1;backgroundOutline=1;" vertex="1" parent="1">
          <mxGeometry x="1141.5" y="1910" width="30" height="30" as="geometry" />
        </mxCell>
        <mxCell id="DJ5MSKaRVRDGybE-odoW-93" value="&lt;b&gt;W_Uk&lt;/b&gt;" style="verticalLabelPosition=middle;verticalAlign=middle;html=1;shape=trapezoid;perimeter=trapezoidPerimeter;whiteSpace=wrap;size=0.23;arcSize=10;flipV=1;labelPosition=center;align=center;fillColor=#f8cecc;strokeColor=#b85450;" vertex="1" parent="1">
          <mxGeometry x="1070" y="2100" width="70" height="30" as="geometry" />
        </mxCell>
        <mxCell id="DJ5MSKaRVRDGybE-odoW-94" value="&lt;b&gt;W_Uv&lt;/b&gt;" style="verticalLabelPosition=middle;verticalAlign=middle;html=1;shape=trapezoid;perimeter=trapezoidPerimeter;whiteSpace=wrap;size=0.23;arcSize=10;flipV=1;labelPosition=center;align=center;fillColor=#d5e8d4;strokeColor=#82b366;" vertex="1" parent="1">
          <mxGeometry x="1310" y="2102.5" width="70" height="30" as="geometry" />
        </mxCell>
        <mxCell id="DJ5MSKaRVRDGybE-odoW-103" style="edgeStyle=orthogonalEdgeStyle;rounded=0;orthogonalLoop=1;jettySize=auto;html=1;exitX=0;exitY=0.5;exitDx=0;exitDy=0;entryX=0;entryY=0.5;entryDx=0;entryDy=0;" edge="1" parent="1" source="DJ5MSKaRVRDGybE-odoW-98" target="DJ5MSKaRVRDGybE-odoW-69">
          <mxGeometry relative="1" as="geometry" />
        </mxCell>
        <mxCell id="DJ5MSKaRVRDGybE-odoW-107" style="edgeStyle=orthogonalEdgeStyle;rounded=0;orthogonalLoop=1;jettySize=auto;html=1;exitX=1;exitY=0.5;exitDx=0;exitDy=0;entryX=1;entryY=0.5;entryDx=0;entryDy=0;" edge="1" parent="1" source="DJ5MSKaRVRDGybE-odoW-98" target="DJ5MSKaRVRDGybE-odoW-105">
          <mxGeometry relative="1" as="geometry">
            <Array as="points">
              <mxPoint x="1060" y="2195" />
              <mxPoint x="1060" y="2025" />
            </Array>
          </mxGeometry>
        </mxCell>
        <mxCell id="DJ5MSKaRVRDGybE-odoW-98" value="&lt;b&gt;C_q&lt;/b&gt;" style="rounded=0;whiteSpace=wrap;html=1;fillColor=#e1d5e7;strokeColor=#9673a6;" vertex="1" parent="1">
          <mxGeometry x="980" y="2190" width="60" height="20" as="geometry" />
        </mxCell>
        <mxCell id="DJ5MSKaRVRDGybE-odoW-100" value="&lt;b&gt;W_Uq&lt;/b&gt;" style="verticalLabelPosition=middle;verticalAlign=middle;html=1;shape=trapezoid;perimeter=trapezoidPerimeter;whiteSpace=wrap;size=0.23;arcSize=10;flipV=1;labelPosition=center;align=center;fillColor=#dae8fc;strokeColor=#6c8ebf;" vertex="1" parent="1">
          <mxGeometry x="860" y="2105" width="70" height="30" as="geometry" />
        </mxCell>
        <mxCell id="DJ5MSKaRVRDGybE-odoW-104" value="" style="shape=sumEllipse;perimeter=ellipsePerimeter;whiteSpace=wrap;html=1;backgroundOutline=1;" vertex="1" parent="1">
          <mxGeometry x="940" y="2115" width="9" height="10" as="geometry" />
        </mxCell>
        <mxCell id="DJ5MSKaRVRDGybE-odoW-105" value="" style="rounded=0;whiteSpace=wrap;html=1;fillColor=#1ba1e2;fontColor=#ffffff;strokeColor=#006EAF;" vertex="1" parent="1">
          <mxGeometry x="1040" y="2010" width="10" height="30" as="geometry" />
        </mxCell>
        <mxCell id="DJ5MSKaRVRDGybE-odoW-106" value="W_Uqr" style="verticalLabelPosition=middle;verticalAlign=middle;html=1;shape=trapezoid;perimeter=trapezoidPerimeter;whiteSpace=wrap;size=0.23;arcSize=10;flipV=1;labelPosition=center;align=center;fillColor=#1ba1e2;strokeColor=#006EAF;fontColor=#ffffff;" vertex="1" parent="1">
          <mxGeometry x="990" y="2105" width="60" height="25" as="geometry" />
        </mxCell>
        <mxCell id="DJ5MSKaRVRDGybE-odoW-108" value="" style="shape=sumEllipse;perimeter=ellipsePerimeter;whiteSpace=wrap;html=1;backgroundOutline=1;" vertex="1" parent="1">
          <mxGeometry x="1048" y="2112.5" width="9" height="10" as="geometry" />
        </mxCell>
        <mxCell id="DJ5MSKaRVRDGybE-odoW-111" value="" style="rounded=0;whiteSpace=wrap;html=1;fillColor=#e51400;fontColor=#ffffff;strokeColor=#B20000;" vertex="1" parent="1">
          <mxGeometry x="1190.5" y="2010" width="10" height="30" as="geometry" />
        </mxCell>
        <mxCell id="DJ5MSKaRVRDGybE-odoW-112" value="W_Ukr" style="verticalLabelPosition=middle;verticalAlign=middle;html=1;shape=trapezoid;perimeter=trapezoidPerimeter;whiteSpace=wrap;size=0.23;arcSize=10;flipV=1;labelPosition=center;align=center;fillColor=#e51400;strokeColor=#B20000;fontColor=#ffffff;" vertex="1" parent="1">
          <mxGeometry x="1211" y="2102.5" width="60" height="25" as="geometry" />
        </mxCell>
        <mxCell id="DJ5MSKaRVRDGybE-odoW-114" value="" style="shape=sumEllipse;perimeter=ellipsePerimeter;whiteSpace=wrap;html=1;backgroundOutline=1;" vertex="1" parent="1">
          <mxGeometry x="1202" y="2112.5" width="9" height="10" as="geometry" />
        </mxCell>
      </root>
    </mxGraphModel>
  </diagram>
</mxfile>
